<svg xmlns="http://www.w3.org/2000/svg" xmlns:xlink="http://www.w3.org/1999/xlink" version="1.1" x="0px" y="0px" viewBox="0 0 100 125" style="enable-background:new 0 0 100 100;" xml:space="preserve"><g><path d="M46.6352539,46.6351318c-0.6966553,0.1295776-1.2246094,0.7384644-1.2246094,1.47229c0,0.828125,0.6713867,1.5,1.5,1.5   h1.6754761c0.1403809,0.6825562,0.7445679,1.1962891,1.4690552,1.1962891c0.7533569,0,1.3709106-0.557251,1.4779053-1.2805176   c1.8206177-0.3499146,3.1905518-1.789978,3.1905518-3.5124512c0-0.8707275-0.3637695-1.6593628-0.9448242-2.2822876   c0.3483887-0.519165,0.5610352-1.119812,0.5610352-1.7684937c0-1.5751953-1.1894531-2.8931274-2.800293-3.3067017   c-0.0787354-0.7541504-0.7089844-1.3446655-1.484375-1.3446655c-0.7248535,0-1.3293457,0.5141602-1.4694214,1.1972656h-1.6751099   c-0.8286133,0-1.5,0.671875-1.5,1.5c0,0.7338257,0.5279541,1.3426514,1.2246094,1.472229V46.6351318z M50.487793,41.5058594   c0.5283203,0,0.8520508,0.2939453,0.8520508,0.4541016s-0.3237305,0.4541016-0.8520508,0.4541016h-0.8525391v-0.9082031H50.487793z    M50.6791992,46.6074219h-1.0439453v-1.1933594h0.8525391h0.1914062c0.6279297,0,1.0444336,0.359375,1.0444336,0.5966797   S51.3071289,46.6074219,50.6791992,46.6074219z"/><path d="M54.3398438,78.4726562c0-1.5751953-1.1894531-2.8931274-2.800293-3.3067017   c-0.0787354-0.7541504-0.7089844-1.3446655-1.484375-1.3446655c-0.7248535,0-1.3293457,0.5141602-1.4694214,1.1972656h-1.6751099   c-0.8286133,0-1.5,0.671875-1.5,1.5c0,0.7338257,0.5279541,1.3426514,1.2246094,1.472229v5.1560669   c-0.6966553,0.1295776-1.2246094,0.7384644-1.2246094,1.47229c0,0.828125,0.6713867,1.5,1.5,1.5h1.6751709   c0.1400146,0.6831665,0.7445068,1.1972656,1.4693604,1.1972656c0.7537231,0,1.3713989-0.5576782,1.4779663-1.2814941   c1.8206177-0.3499756,3.1904907-1.789917,3.1904907-3.5114746c0-0.8707275-0.3637695-1.6593628-0.9448242-2.2822876   C54.1271973,79.7219849,54.3398438,79.1213379,54.3398438,78.4726562z M49.6352539,78.0185547h0.8525391   c0.5283203,0,0.8520508,0.2939453,0.8520508,0.4541016s-0.3237305,0.4541016-0.8520508,0.4541016h-0.8525391V78.0185547z    M50.6791992,83.1191406h-1.0439453v-1.1923828h0.8525391h0.1914062c0.6279297,0,1.0444336,0.359375,1.0444336,0.5966797   S51.3071289,83.1191406,50.6791992,83.1191406z"/><path d="M85.027832,78.4726562c0-1.5751343-1.1893311-2.8929443-2.800293-3.3065796   c-0.0787354-0.7541504-0.7089844-1.3447876-1.484375-1.3447876c-0.7248535,0-1.3293457,0.5141602-1.4694214,1.1972656h-1.6751099   c-0.8286133,0-1.5,0.671875-1.5,1.5c0,0.7338257,0.5279541,1.3426514,1.2246094,1.472229v5.1560669   c-0.6966553,0.1295776-1.2246094,0.7384644-1.2246094,1.47229c0,0.828125,0.6713867,1.5,1.5,1.5h1.6751709   c0.1400146,0.6831665,0.7445068,1.1972656,1.4693604,1.1972656c0.7537231,0,1.3713989-0.5576782,1.4779663-1.2814941   c1.8205566-0.3499756,3.1900024-1.789917,3.1900024-3.5114746c0-0.8706665-0.3635864-1.6593018-0.944458-2.2821655   C84.8151245,79.7221069,85.027832,79.1213989,85.027832,78.4726562z M80.3232422,78.0185547h0.8520508   c0.5288086,0,0.8525391,0.2939453,0.8525391,0.4541016s-0.3237305,0.4541016-0.8525391,0.4541016h-0.8520508V78.0185547z    M81.3671875,83.1191406h-1.0439453v-1.1923828h0.8520508h0.1918945c0.6274414,0,1.0439453,0.359375,1.0439453,0.5966797   S81.9946289,83.1191406,81.3671875,83.1191406z"/><path d="M23.6518555,78.4726562c0-1.5751953-1.1894531-2.8931274-2.800293-3.3067017   c-0.0787354-0.7541504-0.7089844-1.3446655-1.484375-1.3446655c-0.7248535,0-1.3293457,0.5141602-1.4694214,1.1972656h-1.6751099   c-0.8286133,0-1.5,0.671875-1.5,1.5c0,0.7338257,0.5279541,1.3426514,1.2246094,1.472229v5.1560669   c-0.6966553,0.1295776-1.2246094,0.7384644-1.2246094,1.47229c0,0.828125,0.6713867,1.5,1.5,1.5h1.6751709   c0.1400146,0.6831665,0.7445068,1.1972656,1.4693604,1.1972656c0.7536621,0,1.3713379-0.5576172,1.4779663-1.2813721   c1.8206787-0.3497925,3.1904907-1.789856,3.1904907-3.5115967c0-0.8707886-0.3637085-1.6594849-0.9447021-2.2824097   C23.43927,79.7218628,23.6518555,79.1212769,23.6518555,78.4726562z M18.9472656,78.0185547h0.8525391   c0.5283203,0,0.8520508,0.2939453,0.8520508,0.4541016s-0.3237305,0.4541016-0.8520508,0.4541016h-0.8525391V78.0185547z    M19.9916992,83.1191406h-1.0444336v-1.1923828h0.8525391h0.1918945c0.6274414,0,1.0439453,0.359375,1.0439453,0.5966797   S20.6191406,83.1191406,19.9916992,83.1191406z"/><path d="M30.8896484,64.9066162c-0.6966553,0.1295776-1.2246094,0.7384644-1.2246094,1.47229c0,0.828125,0.6713867,1.5,1.5,1.5   H32.84021c0.1400146,0.6831665,0.7445068,1.1972656,1.4693604,1.1972656c0.7536621,0,1.3713379-0.5576172,1.4779663-1.2813721   c1.8206787-0.3498535,3.1904907-1.789978,3.1904907-3.5125732c0-0.8703003-0.3637085-1.6588135-0.9446411-2.2815552   c0.3482666-0.519104,0.5608521-1.1196899,0.5608521-1.7682495c0-1.5751953-1.1894531-2.8931274-2.800293-3.3067017   c-0.0787354-0.7541504-0.7089844-1.3446655-1.484375-1.3446655c-0.7248535,0-1.3293457,0.5141602-1.4694214,1.1972656h-1.6751099   c-0.8286133,0-1.5,0.671875-1.5,1.5c0,0.7338257,0.5279541,1.3426514,1.2246094,1.472229V64.9066162z M34.7421875,59.7783203   c0.5283203,0,0.8520508,0.2939453,0.8520508,0.4541016s-0.3237305,0.4541016-0.8520508,0.4541016h-0.8525391v-0.9082031H34.7421875   z M34.934082,64.8789062h-1.0444336v-1.1923828h0.8525391h0.1918945c0.6274414,0,1.0439453,0.3583984,1.0439453,0.5957031   S35.5615234,64.8789062,34.934082,64.8789062z"/><path d="M61.878418,64.9066162c-0.6966553,0.1295776-1.2246094,0.7384644-1.2246094,1.47229c0,0.828125,0.6713867,1.5,1.5,1.5   h1.6751709c0.1400146,0.6831665,0.7445068,1.1972656,1.4693604,1.1972656c0.7536621,0,1.3713379-0.5576172,1.4779663-1.2813721   c1.8206787-0.3498535,3.1904907-1.789978,3.1904907-3.5125732c0-0.8703003-0.3637085-1.6588135-0.9446411-2.2815552   c0.3482666-0.519104,0.5608521-1.1196899,0.5608521-1.7682495c0-1.5751953-1.1894531-2.8931274-2.800293-3.3067017   c-0.0787354-0.7541504-0.7089844-1.3446655-1.484375-1.3446655c-0.7248535,0-1.3293457,0.5141602-1.4694214,1.1972656h-1.6751099   c-0.8286133,0-1.5,0.671875-1.5,1.5c0,0.7338257,0.5279541,1.3426514,1.2246094,1.472229V64.9066162z M65.730957,59.7783203   c0.5283203,0,0.8520508,0.2939453,0.8520508,0.4541016s-0.3237305,0.4541016-0.8520508,0.4541016H64.878418v-0.9082031H65.730957z    M65.9228516,64.8789062H64.878418v-1.1923828h0.8525391h0.1918945c0.6274414,0,1.0439453,0.3583984,1.0439453,0.5957031   S66.550293,64.8789062,65.9228516,64.8789062z"/><path d="M97.3334961,86.8369141l-3.3393555-14.1982422c-0.3720703-1.5839844-1.7363281-2.6904297-3.3164062-2.6904297h-8.6123657   c0.0640259-0.4434204,0.0646973-0.8988037-0.0419312-1.3515625l-3.3398438-14.1982422   c-0.3720703-1.5839844-1.7363281-2.6904297-3.3164062-2.6904297H66.743042   c0.0848389-0.4783325,0.0856323-0.9743652-0.0301514-1.4658203l-3.3398438-14.1992188   c-0.3725586-1.5830078-1.7363281-2.6894531-3.315918-2.6894531H39.9428711c-1.5795898,0-2.9433594,1.1064453-3.315918,2.6894531   l-3.3398438,14.1992188c-0.1157837,0.4914551-0.1149902,0.9874878-0.0301514,1.4658203h-8.6241455   c-1.5800781,0-2.9443359,1.1064453-3.3164062,2.6904297l-3.3398438,14.1982422   c-0.1066284,0.4527588-0.105957,0.9081421-0.0419312,1.3515625H9.3222656c-1.5800781,0-2.9443359,1.1064453-3.3164062,2.6904297   L2.6665039,86.8369141c-0.2548828,1.0830078-0.0087891,2.1982422,0.6743164,3.0605469   c0.6503906,0.8212891,1.6132812,1.2919922,2.6416016,1.2919922h26.793457c0.6965942,0,1.354187-0.2310181,1.9138184-0.6253052   c0.5596313,0.3942871,1.2172241,0.6253052,1.9138184,0.6253052h26.7929688c0.6965942,0,1.354187-0.2310181,1.9138184-0.6253052   c0.5596313,0.3942871,1.2172241,0.6253052,1.9138184,0.6253052h26.793457c1.0283203,0,1.9912109-0.4707031,2.6416016-1.2919922   C97.3422852,89.0351562,97.5883789,87.9199219,97.3334961,86.8369141z M75.7636719,55.0859375l3.3398438,14.1982422   c0.0615234,0.2617188-0.0532227,0.4433594-0.1054688,0.5087891c-0.0561523,0.0712891-0.1518555,0.1552734-0.2910156,0.1552734   h-8.1430664H60.0571289h-8.1435547c-0.1391602,0-0.2348633-0.0839844-0.2905273-0.1542969   c-0.0522461-0.0664062-0.1669922-0.2480469-0.1054688-0.5097656l3.3393555-14.1982422   c0.0522461-0.2226562,0.215332-0.3779297,0.3964844-0.3779297h20.1137695   C75.5483398,54.7080078,75.7114258,54.8632812,75.7636719,55.0859375z M65.3103027,80.8742676l-1.8644409-7.9260254h3.7288818   L65.3103027,80.8742676z M50,62.6342163L48.1089478,54.59375h3.7821045L50,62.6342163z M36.2070312,50.9296875   l3.3398438-14.1992188c0.0517578-0.21875,0.2177734-0.3769531,0.3959961-0.3769531h20.1142578   c0.1782227,0,0.3442383,0.1582031,0.3959961,0.3769531l3.3398438,14.1992188   c0.0615234,0.2617188-0.0532227,0.4433594-0.1054688,0.5097656c-0.0561523,0.0703125-0.1518555,0.1542969-0.2910156,0.1542969   H36.6035156c-0.1391602,0-0.2348633-0.0839844-0.2910156-0.1542969   C36.2602539,51.3730469,36.1455078,51.1914062,36.2070312,50.9296875z M21.0019531,69.7929688   c-0.0522461-0.0654297-0.1669922-0.2470703-0.1054688-0.5087891l3.3398438-14.1982422   c0.0522461-0.2226562,0.215332-0.3779297,0.3964844-0.3779297H44.746582c0.1811523,0,0.3442383,0.1552734,0.3964844,0.3779297   l3.3393555,14.1982422c0.0615234,0.2617188-0.0532227,0.4433594-0.1054688,0.5097656   c-0.0556641,0.0703125-0.1513672,0.1542969-0.2905273,0.1542969h-8.1435547H29.4360352h-8.1430664   C21.1538086,69.9482422,21.0581055,69.8642578,21.0019531,69.7929688z M34.6896973,80.8742676l-1.8644409-7.9260254h3.7288818   L34.6896973,80.8742676z M33.0664062,88.0341797c-0.0561523,0.0712891-0.1518555,0.1552734-0.2905273,0.1552734H5.9824219   c-0.1386719,0-0.234375-0.0839844-0.2900391-0.1542969c-0.0522461-0.0664062-0.1674805-0.2490234-0.105957-0.5107422   l3.3393555-14.1982422c0.0522461-0.2226562,0.215332-0.3779297,0.3964844-0.3779297h11.9707031h8.1430664   c0.1811523,0,0.3442383,0.1552734,0.3964844,0.3779297l3.3398438,14.1982422   C33.2338867,87.7861328,33.1186523,87.96875,33.0664062,88.0341797z M63.6870117,88.0351562   c-0.0556641,0.0703125-0.1518555,0.1542969-0.2905273,0.1542969H36.6035156c-0.1386719,0-0.2348633-0.0839844-0.2905273-0.1542969   c-0.0522461-0.0664062-0.1674805-0.2490234-0.105957-0.5107422l3.3398438-14.1982422   c0.0522461-0.2226562,0.215332-0.3779297,0.3959961-0.3779297h8.1435547h3.8271484h8.1435547   c0.1806641,0,0.34375,0.1552734,0.3959961,0.3779297l3.3398438,14.1982422   C63.8544922,87.7861328,63.7392578,87.96875,63.6870117,88.0351562z M94.3076172,88.0351562   c-0.0556641,0.0703125-0.1513672,0.1542969-0.2900391,0.1542969h-26.793457c-0.1386719,0-0.234375-0.0839844-0.2905273-0.1552734   c-0.0522461-0.0654297-0.1674805-0.2480469-0.105957-0.5097656l3.3398438-14.1982422   c0.0522461-0.2226562,0.215332-0.3779297,0.3964844-0.3779297h8.1430664h11.9707031   c0.1811523,0,0.3442383,0.1552734,0.3964844,0.3779297l3.3393555,14.1982422   C94.4750977,87.7861328,94.3598633,87.96875,94.3076172,88.0351562z"/><path d="M50,22.0820312c0.8286133,0,1.5-0.671875,1.5-1.5V10.3105469c0-0.828125-0.6713867-1.5-1.5-1.5s-1.5,0.671875-1.5,1.5   v10.2714844C48.5,21.4101562,49.1713867,22.0820312,50,22.0820312z"/><path d="M67.2260742,26.1083984c0.2368164,0.1376953,0.4956055,0.203125,0.7514648,0.203125   c0.5170898,0,1.0205078-0.2675781,1.2988281-0.7470703l5.4375-9.3652344   c0.4160156-0.7158203,0.1723633-1.6337891-0.5444336-2.0498047c-0.715332-0.4169922-1.6342773-0.1728516-2.050293,0.5439453   l-5.4375,9.3652344C66.265625,24.7744141,66.5092773,25.6923828,67.2260742,26.1083984z"/><path d="M81.6064453,36.5830078c0.2641602,0,0.5322266-0.0693359,0.7749023-0.2167969l9.3286133-5.640625   c0.7084961-0.4287109,0.9360352-1.3505859,0.5073242-2.0595703c-0.4291992-0.7080078-1.3496094-0.9384766-2.0600586-0.5068359   l-9.3286133,5.640625c-0.7084961,0.4287109-0.9360352,1.3505859-0.5073242,2.0595703   C80.6035156,36.3251953,81.0986328,36.5830078,81.6064453,36.5830078z"/><path d="M29.2177734,25.5644531c0.2783203,0.4794922,0.7817383,0.7470703,1.2988281,0.7470703   c0.2553711,0,0.5146484-0.0654297,0.7519531-0.203125c0.7163086-0.4160156,0.9599609-1.3339844,0.5439453-2.0498047   l-5.4379883-9.3652344c-0.4160156-0.7158203-1.3330078-0.9609375-2.0507812-0.5439453   c-0.7163086,0.4160156-0.9599609,1.3339844-0.5439453,2.0498047L29.2177734,25.5644531z"/><path d="M6.7836914,30.7255859l9.3286133,5.640625c0.2431641,0.1474609,0.5107422,0.2167969,0.7749023,0.2167969   c0.5078125,0,1.003418-0.2578125,1.2851562-0.7236328c0.4287109-0.7089844,0.2011719-1.6308594-0.5073242-2.0595703   l-9.3286133-5.640625c-0.7104492-0.4316406-1.6318359-0.2011719-2.0600586,0.5068359   C5.8476562,29.375,6.0751953,30.296875,6.7836914,30.7255859z"/></g></svg>
